<svg width="23" height="23" viewBox="0 0 23 23" fill="none" xmlns="http://www.w3.org/2000/svg">
<path d="M12.6707 14.129H13.173L12.9653 13.9131L18.6003 7.93307L18.3413 7.59952L13.2174 10.4338L10.5959 7.70992L10.4403 7.54825L10.2864 7.71154L4.51026 13.8403L4.76918 14.1739L9.89528 11.3395L12.3751 13.9163L12.1747 14.129H12.6697H12.6707ZM5.12308 18.2362V18.1298L5.03828 18.0657C2.68904 16.2891 1.19325 13.5773 1.19325 10.5432C1.19325 5.21138 5.8193 0.866038 11.5563 0.866038C17.2945 0.866038 21.9205 5.21139 21.9205 10.5432C21.9205 15.8739 17.2944 20.2203 11.5563 20.2203C10.5203 20.2203 9.51933 20.0777 8.57629 19.8136L8.49177 19.79L8.41501 19.8326L5.12308 21.6588V18.2362Z" stroke="#333333" stroke-width="0.427388"/>
</svg>
