<svg width="11" height="7" viewBox="0 0 11 7" fill="none" xmlns="http://www.w3.org/2000/svg">
<path d="M9.75943 1.01625C9.67706 0.933707 9.57922 0.868221 9.4715 0.82354C9.36379 0.778858 9.24832 0.755859 9.13171 0.755859C9.01509 0.755859 8.89963 0.778858 8.79191 0.82354C8.6842 0.868221 8.58635 0.933707 8.50398 1.01625L5.04926 4.47097L1.59454 1.01625C1.42806 0.849766 1.20226 0.756236 0.966819 0.756236C0.731376 0.756236 0.505574 0.849766 0.339091 1.01625C0.172607 1.18273 0.0790796 1.40853 0.0790796 1.64398C0.0790796 1.87942 0.172607 2.10522 0.339091 2.2717L4.42599 6.3586C4.50836 6.44114 4.60621 6.50663 4.71392 6.55131C4.82163 6.59599 4.9371 6.61899 5.05371 6.61899C5.17033 6.61899 5.2858 6.59599 5.39351 6.55131C5.50122 6.50663 5.59907 6.44114 5.68144 6.3586L9.76834 2.2717C10.1067 1.93335 10.1067 1.3635 9.75943 1.01625Z" fill="white"/>
</svg>
