<svg width="27" height="27" viewBox="0 0 27 27" fill="none" xmlns="http://www.w3.org/2000/svg">
<path d="M13.2754 0.533203C6.19418 0.533203 0.453735 6.27364 0.453735 13.3548C0.453735 20.436 6.19418 26.1765 13.2754 26.1765C20.3566 26.1765 26.097 20.436 26.097 13.3548C26.097 6.27364 20.3566 0.533203 13.2754 0.533203ZM6.8129 5.95015L9.09488 6.66699C9.39698 6.76621 9.59819 7.04675 9.63328 7.33374L9.76163 8.59051L20.0947 9.74401C20.5384 9.82996 20.8502 10.2306 20.788 10.6424L20.1463 14.2578C20.0647 14.636 19.7515 14.8953 19.4029 14.8996H10.2234L10.0434 15.9247H18.7612C19.217 15.9408 19.5509 16.2879 19.5563 16.6932C19.5374 17.1556 19.1647 17.4583 18.7612 17.4633H9.11992C8.63364 17.423 8.27664 17.0377 8.35144 16.5664L8.76149 14.3095L8.11979 8.00048L6.35118 7.43706C6.14603 7.36867 5.99204 7.24005 5.88947 7.052C5.69539 6.6453 5.87667 6.195 6.22285 6.00022C6.42043 5.89752 6.6134 5.88472 6.8129 5.95015ZM10.2875 17.9063C10.9514 17.9063 11.4896 18.4444 11.4896 19.1083C11.4896 19.7721 10.9514 20.3103 10.2875 20.3103C9.62371 20.3103 9.0855 19.7721 9.0855 19.1083C9.0855 18.4444 9.62366 17.9063 10.2875 17.9063ZM17.3432 17.9063C18.007 17.9063 18.5452 18.4444 18.5452 19.1083C18.5452 19.7721 18.007 20.3103 17.3432 20.3103C16.6793 20.3103 16.1411 19.7721 16.1411 19.1083C16.1411 18.4444 16.6793 17.9063 17.3432 17.9063Z" fill="#5569A1"/>
</svg>
