<svg width="27" height="26" viewBox="0 0 27 26" fill="none" xmlns="http://www.w3.org/2000/svg">
<g clip-path="url(#clip0_172_40)">
<path d="M10.6149 19.1793L10.681 19.7359C10.3058 19.6732 9.93233 19.6002 9.5611 19.5171L9.57472 19.6072C10.0632 19.7162 10.5554 19.8077 11.0504 19.8817L10.9727 19.1485C10.4648 19.0733 9.95991 18.9796 9.45892 18.8676C9.46373 18.8968 9.46774 18.9265 9.47295 18.9569C9.85159 19.0411 10.2318 19.116 10.6149 19.1793ZM12.5369 19.4089L12.5662 19.9606C12.187 19.9328 11.8086 19.8947 11.4315 19.8464L11.4395 19.9346C11.9359 19.9991 12.4339 20.044 12.9336 20.072L12.9039 19.3448C12.3915 19.3165 11.8803 19.2696 11.3714 19.2042C11.3746 19.233 11.3774 19.2631 11.3798 19.2923C11.7644 19.3416 12.1499 19.3801 12.5369 19.4089ZM14.4726 19.4606L14.4642 20.0115C14.0843 20.0195 13.7037 20.0155 13.323 20.0023C13.3246 20.0312 13.3254 20.0608 13.3262 20.0901C13.8255 20.1085 14.3271 20.1085 14.8264 20.0901C14.8336 19.848 14.8396 19.6052 14.8464 19.3628C14.3333 19.3817 13.8197 19.3817 13.3066 19.3628L13.3094 19.4506C13.6965 19.4646 14.0843 19.4678 14.4726 19.4606ZM16.7813 19.2038C16.272 19.2687 15.7608 19.3159 15.2491 19.3444L15.2447 19.4329C15.632 19.4112 16.0187 19.379 16.4042 19.3364L16.3594 19.8901C15.9815 19.9314 15.6025 19.9634 15.2231 19.9843L15.219 20.072C15.7186 20.0446 16.217 19.9988 16.7132 19.9346C16.7352 19.691 16.7576 19.4474 16.7813 19.2038ZM18.6937 18.8672C18.1929 18.9793 17.6881 19.073 17.1804 19.1481C17.1771 19.1777 17.1735 19.207 17.1711 19.2374C17.5544 19.1795 17.9361 19.1118 18.3159 19.0343L18.2349 19.5936C17.8619 19.6697 17.4877 19.7363 17.1114 19.7919C17.1082 19.8208 17.1046 19.8508 17.1018 19.8813C17.5968 19.8075 18.0891 19.7159 18.5775 19.6068L18.6937 18.8672ZM9.61439 19.8581C9.98155 19.9398 10.3508 20.0117 10.7219 20.0736L10.788 20.6302C10.4243 20.5696 10.0623 20.4991 9.70253 20.4186C9.70763 20.4482 9.71231 20.4778 9.71656 20.5076C10.1902 20.6133 10.667 20.7023 11.1458 20.7736C11.1201 20.5288 11.0937 20.2852 11.0676 20.0412C10.5752 19.9684 10.0856 19.8774 9.59996 19.7683C9.60557 19.798 9.60998 19.8284 9.61439 19.8581ZM11.4631 20.183C11.8361 20.2307 12.2096 20.2684 12.5842 20.296L12.6142 20.8469C12.2468 20.8206 11.8802 20.7839 11.5148 20.7371L11.5228 20.8249C12.0036 20.887 12.4868 20.9315 12.9696 20.9583C12.9604 20.7159 12.95 20.4727 12.9404 20.2303C12.4436 20.2033 11.9481 20.1579 11.4547 20.0941L11.4631 20.183ZM13.3303 20.2479L13.3327 20.3365C13.7085 20.3501 14.0843 20.3537 14.4602 20.3461L14.4526 20.8974C14.0839 20.9042 13.7157 20.901 13.3471 20.8878L13.3499 20.9755C13.8335 20.9928 14.3187 20.9928 14.8027 20.9755L14.8224 20.2483C14.3252 20.266 13.8275 20.2659 13.3303 20.2479ZM16.6979 20.0941C16.2047 20.1577 15.7092 20.2031 15.2126 20.2303C15.211 20.2595 15.2102 20.2892 15.209 20.3188C15.5842 20.298 15.9587 20.2672 16.3321 20.2263L16.2872 20.7796C15.9214 20.8202 15.5545 20.8505 15.187 20.8706C15.185 20.9002 15.1842 20.9291 15.183 20.9591C15.6667 20.9323 16.1493 20.8878 16.6298 20.8257C16.6519 20.5813 16.6751 20.3373 16.6979 20.0941ZM18.5523 19.7679C18.0662 19.8765 17.5766 19.9682 17.0846 20.0408C17.0812 20.0702 17.0783 20.0998 17.0758 20.1293C17.4475 20.0746 17.8176 20.0094 18.1856 19.9338L18.1047 20.4927C17.7437 20.5673 17.3807 20.6314 17.0161 20.6851C17.0137 20.7143 17.0101 20.7436 17.0073 20.7736C17.4861 20.7023 17.9629 20.6133 18.4361 20.5076C18.4741 20.2611 18.513 20.0143 18.5523 19.7679ZM9.75663 20.7576C10.112 20.8373 10.469 20.907 10.828 20.9663C10.8509 21.1526 10.8725 21.3386 10.8945 21.5241C10.5427 21.4658 10.1926 21.3974 9.84477 21.3189C9.84998 21.349 9.85439 21.3786 9.8588 21.4083C10.3163 21.5114 10.7775 21.5971 11.2415 21.6651L11.1638 20.9335C10.6869 20.8629 10.2127 20.7748 9.7422 20.6694C9.74741 20.6987 9.75142 20.7283 9.75663 20.7576ZM11.5464 21.0725C11.9067 21.119 12.2689 21.1559 12.6319 21.1819L12.6615 21.7344C12.306 21.7091 11.9512 21.6732 11.5977 21.627C11.6009 21.6563 11.6033 21.6863 11.6061 21.7156C12.0705 21.7753 12.5377 21.8182 13.0057 21.8438L12.9761 21.1174C12.4953 21.0904 12.0156 21.0461 11.538 20.9848C11.5404 21.0144 11.5428 21.0437 11.5464 21.0725ZM13.3539 21.1346L13.3559 21.2216C13.7193 21.2344 14.0839 21.238 14.4473 21.2312C14.4445 21.4147 14.4425 21.599 14.4401 21.7825C14.0831 21.7893 13.7265 21.7861 13.3707 21.7737L13.3727 21.8614C13.8419 21.8779 14.3107 21.8779 14.7795 21.8614C14.7855 21.619 14.7915 21.3766 14.7987 21.135C14.3173 21.1519 13.8354 21.1518 13.3539 21.1346ZM16.6146 20.9848C16.1369 21.0462 15.6571 21.0904 15.1762 21.1174L15.1726 21.2043C15.536 21.1843 15.8986 21.1534 16.2608 21.1138L16.2159 21.6679C15.8617 21.7074 15.5064 21.737 15.1505 21.7565L15.1469 21.8442C15.6147 21.8185 16.0814 21.7758 16.5461 21.716L16.6146 20.9848ZM18.41 20.669C17.9397 20.7746 17.4657 20.8627 16.9888 20.9331C16.9864 20.9623 16.9828 20.9916 16.9796 21.0208C17.3399 20.968 17.6985 20.9045 18.055 20.8305L17.9733 21.3914C17.6247 21.4624 17.2733 21.5245 16.9207 21.577C16.9172 21.6062 16.9142 21.6354 16.9115 21.6647C17.3754 21.5968 17.8365 21.5111 18.2938 21.4079C18.3327 21.1619 18.3708 20.9158 18.41 20.669ZM9.89847 21.6591C10.2418 21.736 10.5876 21.8033 10.935 21.8614L11.0011 22.418C10.6612 22.3612 10.3229 22.2952 9.98661 22.22L10.0006 22.3102C10.443 22.4096 10.8885 22.4921 11.3365 22.5586L11.2588 21.8258C10.7975 21.7578 10.3389 21.6725 9.88404 21.5702C9.88927 21.5997 9.89408 21.6294 9.89847 21.6591ZM11.6294 21.964C11.9784 22.0089 12.3286 22.0441 12.6796 22.0698C12.6896 22.2529 12.6992 22.4372 12.7084 22.6215C12.3651 22.5964 12.0225 22.5617 11.6811 22.5173C11.6835 22.5482 11.6867 22.577 11.6895 22.6075C12.1386 22.6649 12.5897 22.7064 13.0418 22.7317L13.0121 22.0033C12.5469 21.9781 12.0827 21.9357 11.6206 21.8763C11.6234 21.9051 11.627 21.9344 11.6294 21.964ZM13.3775 22.0197L13.3799 22.1067C13.7317 22.1201 14.0838 22.1233 14.4357 22.1163C14.4329 22.2998 14.4309 22.4833 14.4277 22.6676C14.0835 22.6744 13.7385 22.6704 13.394 22.6588L13.3964 22.7473C13.8491 22.7638 14.3023 22.7638 14.7555 22.7473L14.7743 22.0201C14.3099 22.0361 13.8427 22.0361 13.3775 22.0197ZM16.5317 21.8755C16.0695 21.935 15.6054 21.9774 15.1401 22.0025L15.1365 22.0902C15.488 22.0714 15.8389 22.0425 16.1887 22.0033C16.1735 22.1876 16.1586 22.3727 16.1442 22.557C15.802 22.5951 15.4582 22.6227 15.1145 22.6424L15.1109 22.7313C15.5631 22.7061 16.0143 22.6647 16.4635 22.6071C16.4856 22.3631 16.5088 22.1195 16.5317 21.8755ZM18.2682 21.5697C17.8134 21.6722 17.355 21.7574 16.8939 21.8254L16.8847 21.9139C17.2332 21.8622 17.5794 21.8013 17.924 21.7304L17.8431 22.289C17.5057 22.3587 17.1663 22.4188 16.8258 22.4689C16.8219 22.4987 16.8187 22.5286 16.8161 22.5586C17.2643 22.4923 17.7099 22.4094 18.152 22.3102L18.2682 21.5697ZM10.0403 22.5606C10.3723 22.635 10.7064 22.7002 11.042 22.7562L11.1081 23.3119C10.7799 23.257 10.4532 23.1933 10.1285 23.1208C10.1337 23.1504 10.1385 23.1805 10.1425 23.2097C10.5696 23.3055 10.9999 23.3856 11.4327 23.4497C11.407 23.2065 11.3798 22.9613 11.3541 22.7173C10.9087 22.6514 10.4657 22.5692 10.0263 22.4709L10.0403 22.5606ZM11.7123 22.8539C12.0493 22.8972 12.3883 22.9316 12.7264 22.9569L12.7561 23.5086C12.4244 23.484 12.0935 23.4506 11.7636 23.4085L11.772 23.4966C12.2052 23.5523 12.6407 23.5924 13.0774 23.6168C13.0678 23.3744 13.057 23.1312 13.0478 22.8888C12.5984 22.8647 12.1502 22.8238 11.7039 22.7662L11.7123 22.8539ZM13.4012 22.9048L13.4036 22.9934C13.7438 23.0054 14.0839 23.0094 14.4233 23.0022L14.4161 23.5527C14.0831 23.5595 13.7502 23.5563 13.418 23.5443L13.42 23.632C13.8575 23.6477 14.2947 23.6477 14.7318 23.632C14.7382 23.39 14.745 23.1476 14.7511 22.9048C14.3013 22.9216 13.851 22.9216 13.4012 22.9048ZM16.4483 22.7662C16.0021 22.8238 15.5538 22.8647 15.1045 22.8888L15.1008 22.9781C15.4404 22.9588 15.7793 22.9306 16.1174 22.8936L16.0725 23.4469C15.7423 23.4838 15.4106 23.5114 15.0788 23.5295L15.0748 23.6172C15.5114 23.5928 15.9469 23.5527 16.3806 23.497C16.4026 23.253 16.4259 23.0094 16.4483 22.7662ZM17.7121 23.1881C17.3863 23.2546 17.0581 23.3127 16.73 23.3612C16.7268 23.3912 16.7232 23.4201 16.7204 23.4497C17.1533 23.3859 17.5837 23.3059 18.0106 23.2097C18.049 22.9645 18.0875 22.7173 18.1268 22.4705C17.6873 22.5688 17.2444 22.651 16.7989 22.7169C16.7957 22.7469 16.7925 22.7758 16.7901 22.8062C17.1264 22.7565 17.4612 22.6973 17.7942 22.6287L17.7121 23.1881Z" fill="#333333" fill-opacity="0.6"/>
<path d="M22.7201 12.7941C22.6404 12.0845 22.2477 11.4642 21.5502 10.9458C21.7753 10.1913 22.0851 8.57416 21.1603 7.26475C20.3061 6.05431 19.2539 5.50137 18.3263 5.01335C17.9497 4.81542 17.5931 4.6283 17.2565 4.40432C17.0129 4.24245 16.6803 3.97881 16.6615 3.74521C16.6387 3.46193 16.9608 3.07728 17.2084 2.75033L17.8179 1.94698L16.8775 1.56633C16.829 1.5479 15.6678 1.10596 14.223 1.10596C11.8538 1.10596 10.0764 2.27954 9.15564 4.43037C9.13917 4.42806 9.12258 4.42659 9.10596 4.42596C9.04619 4.42243 8.98633 4.42069 8.92646 4.42075H8.92565C7.46719 4.42075 6.00272 5.46652 5.1028 7.15056C4.00094 9.21284 4.04141 11.6125 5.20618 13.2633C5.45164 13.6136 5.74483 13.928 6.07725 14.1973C6.22309 14.7598 6.48754 15.2058 6.84134 15.5648L7.04929 17.1879C7.07693 17.6306 7.32295 18.2052 8.2429 18.6383L9.03304 22.94C9.15885 25.1465 12.7253 25.1465 14.0763 25.1465C15.4274 25.1465 18.9942 25.1465 19.1201 22.9396L19.909 18.6387C20.8293 18.2056 21.075 17.6306 21.103 17.1879L21.2945 15.6942C21.4111 15.5888 21.5201 15.4758 21.6203 15.3524C21.7854 15.2009 22.8724 14.148 22.7201 12.7941ZM10.2459 4.6303C10.554 3.83937 11.1005 3.11615 11.8233 2.61811C12.2849 2.29236 12.8086 2.07199 13.3459 1.93976C13.6363 1.89519 13.9296 1.87282 14.2234 1.87285C15.5368 1.87285 16.5914 2.28034 16.5914 2.28034C16.2917 2.67661 16.0056 3.06767 15.879 3.45712C15.748 3.859 15.8606 4.29734 16.9784 5.277C17.3282 5.58351 17.7153 5.87841 18.0995 6.19134C18.8628 6.8204 19.6506 7.51197 20.2383 8.39626C21.0798 9.662 20.6939 11.0576 20.6783 11.1056C20.4447 10.2526 19.9551 9.6031 19.3633 9.02172C18.7114 8.37943 17.9433 7.81127 17.1776 7.17941C16.7957 6.86087 16.4079 6.53312 16.0413 6.15448C15.6799 5.77584 15.3148 5.35353 15.0921 4.79258C14.9843 4.51411 14.9226 4.19197 14.9654 3.87703C15.0059 3.5731 15.129 3.28609 15.3212 3.04723C15.4046 2.94666 15.4951 2.85691 15.5873 2.77317C15.1602 3.11334 14.8545 3.50721 14.6882 3.93874C14.3917 4.66516 14.3909 5.48575 14.5692 6.2863C14.7515 7.08925 15.1113 7.87458 15.6302 8.60181C16.1454 9.33705 16.8258 9.99897 17.6632 10.6677C16.5601 10.6417 15.4639 10.1885 14.6008 9.46046C13.7366 8.73283 13.1019 7.73074 12.8563 6.62327C12.6079 5.52902 12.7505 4.2701 13.5002 3.29285C13.8178 2.88478 14.2305 2.56068 14.7022 2.34885C14.588 2.3745 14.4726 2.39774 14.3612 2.43019C13.6476 2.62051 13.015 2.95949 12.5273 3.40824C11.5397 4.30255 11.1686 5.65443 11.3674 6.92257C11.5573 8.19793 12.3122 9.38553 13.4769 10.1496C14.0014 10.505 14.602 10.7623 15.2467 10.9526C14.4273 11.0487 13.5703 11.1032 12.7485 10.8183C12.0004 10.5591 11.4167 10.0438 10.9475 9.41398C10.4423 8.73579 10.1108 7.94427 9.98184 7.10849C9.85803 6.28149 9.93736 5.42324 10.2459 4.6303ZM20.3237 17.1202C20.3093 17.5313 19.9066 17.8514 19.2146 18.0906L19.2142 18.0922H19.209C18.1088 18.4709 16.2769 18.6444 14.0755 18.6444C11.8746 18.6444 10.0415 18.4709 8.94168 18.0922H8.93567C8.93567 18.0922 10.1477 19.1236 14.0755 19.1236C17.9954 19.1236 19.2094 18.0962 19.2138 18.0926L18.3403 22.8559C18.3127 23.9213 16.8058 24.38 14.0751 24.38C11.3441 24.38 9.83759 23.9213 9.80995 22.8559L8.93447 18.0902C8.2429 17.851 7.84102 17.5313 7.8266 17.1202L7.7092 16.191C9.26262 16.9956 11.6555 17.0008 14.1425 17.0008C16.6611 17.0008 18.9133 16.9912 20.4355 16.2503L20.3237 17.1202ZM21.0814 14.7967L21.0766 14.7866C20.0208 16.2267 17.3186 16.2339 14.1421 16.2339C10.3392 16.2339 7.21036 16.2287 6.78164 13.7609C6.41788 13.5068 6.10183 13.1905 5.84806 12.8265C3.80101 9.92564 6.19064 5.18724 8.92606 5.18805C8.96612 5.18805 9.00739 5.18925 9.04826 5.19125C8.78381 5.9914 8.5999 6.8821 8.81306 7.73955C7.96002 9.87275 8.78782 12.3433 10.8128 13.3947C11.2111 13.601 11.6422 13.7665 12.0862 13.9104L12.0902 13.9224C12.0902 13.9224 9.28586 15.2234 7.09376 14.1175L7.09416 14.1179C8.50374 16.1209 10.9779 14.9089 12.2849 14.9333C13.7117 14.9593 14.7487 15.7587 17.9877 15.0082C20.1338 14.511 20.8261 14.3207 21.1351 14.7446C21.1018 14.7782 21.0814 14.7967 21.0814 14.7967ZM19.7359 12.6162C19.1501 12.504 18.5471 12.4932 17.9417 12.5284C17.3387 12.5653 14.251 13.5726 11.9672 12.3874C11.3317 12.0576 10.7247 11.6826 10.2519 11.191C9.78801 10.7118 9.41723 10.1505 9.15845 9.53578C8.93928 8.97644 8.775 8.38344 8.82589 7.79565C8.98415 8.37342 9.85322 9.57064 10.9202 10.4754C12.9172 12.1698 17.2834 11.4286 17.9693 11.4955C18.6509 11.5612 19.3432 11.7062 19.9711 12.0096C20.5917 12.3101 21.1563 12.7913 21.361 13.3943C20.8878 12.956 20.3229 12.7228 19.7359 12.6162Z" fill="#333333" fill-opacity="0.6"/>
<path d="M8.95047 5.51416C8.39272 5.56064 7.85462 5.80625 7.39023 6.13801C6.92865 6.47578 6.55122 6.91452 6.26033 7.39774C5.68776 8.36778 5.44856 9.53134 5.67454 10.6713C5.78953 11.2386 6.02553 11.7988 6.39415 12.282C6.76718 12.7691 7.25353 13.1578 7.81094 13.4143C8.92602 13.9236 10.1465 13.8995 11.1886 13.5766C10.1108 13.3578 9.11194 13.0661 8.38151 12.53C7.64627 12.0055 7.21794 11.2635 7.04926 10.4281C6.88218 9.59224 6.96472 8.6795 7.26082 7.82045C7.56293 6.9602 8.06537 6.13881 8.95047 5.51416Z" fill="#333333" fill-opacity="0.6"/>
</g>
<defs>
<clipPath id="clip0_172_40">
<rect width="25.6433" height="25.6433" fill="white" transform="translate(0.697388 0.304688)"/>
</clipPath>
</defs>
</svg>
