<svg width="26" height="26" viewBox="0 0 26 26" fill="none" xmlns="http://www.w3.org/2000/svg">
<path d="M4.51931 10.549C4.56229 10.0135 4.8054 9.5138 5.20022 9.14947C5.59504 8.78515 6.11261 8.5829 6.64984 8.58301H19.5334C20.0707 8.5829 20.5882 8.78515 20.9831 9.14947C21.3779 9.5138 21.621 10.0135 21.664 10.549L22.522 21.2337C22.5456 21.5277 22.508 21.8235 22.4117 22.1023C22.3154 22.3811 22.1624 22.637 21.9624 22.8538C21.7624 23.0706 21.5196 23.2436 21.2494 23.362C20.9792 23.4803 20.6875 23.5415 20.3925 23.5416H5.79079C5.49581 23.5415 5.20404 23.4803 4.93385 23.362C4.66367 23.2436 4.42092 23.0706 4.22088 22.8538C4.02085 22.637 3.86787 22.3811 3.77156 22.1023C3.67526 21.8235 3.63773 21.5277 3.66133 21.2337L4.51931 10.549V10.549Z" stroke="#333333" stroke-width="1.06847" stroke-linecap="round" stroke-linejoin="round"/>
<path d="M17.3655 11.7881V6.44575C17.3655 5.31225 16.9152 4.22517 16.1137 3.42367C15.3122 2.62216 14.2251 2.17188 13.0916 2.17188C11.9581 2.17188 10.871 2.62216 10.0695 3.42367C9.26803 4.22517 8.81775 5.31225 8.81775 6.44575V11.7881" stroke="#333333" stroke-width="1.06847" stroke-linecap="round" stroke-linejoin="round"/>
</svg>
