<svg width="23" height="22" viewBox="0 0 23 22" fill="none" xmlns="http://www.w3.org/2000/svg">
<path d="M1.91108 12.2973H2.97955V19.7766C2.97955 20.9551 3.93796 21.9136 5.11649 21.9136H17.9381C19.1166 21.9136 20.0751 20.9551 20.0751 19.7766V12.2973H21.1435C21.3548 12.2973 21.5614 12.2346 21.737 12.1172C21.9127 11.9998 22.0496 11.8329 22.1305 11.6377C22.2113 11.4425 22.2325 11.2277 22.1913 11.0205C22.15 10.8132 22.0483 10.6229 21.8989 10.4735L12.2827 0.857222C12.1836 0.757912 12.0658 0.679125 11.9362 0.62537C11.8066 0.571614 11.6676 0.543945 11.5273 0.543945C11.387 0.543945 11.248 0.571614 11.1184 0.62537C10.9888 0.679125 10.871 0.757912 10.7719 0.857222L1.15567 10.4735C1.00629 10.6229 0.904561 10.8132 0.863353 11.0205C0.822145 11.2277 0.843303 11.4425 0.924155 11.6377C1.00501 11.8329 1.14192 11.9998 1.31759 12.1172C1.49325 12.2346 1.69979 12.2973 1.91108 12.2973ZM9.39037 19.7766V14.4343H13.6642V19.7766H9.39037ZM11.5273 3.12345L17.9381 9.53426V14.4343L17.9392 19.7766H15.8012V14.4343C15.8012 13.2557 14.8428 12.2973 13.6642 12.2973H9.39037C8.21184 12.2973 7.25343 13.2557 7.25343 14.4343V19.7766H5.11649V9.53426L11.5273 3.12345Z" fill="white"/>
</svg>
